<svg id="Layer_1" data-name="Layer 1" xmlns="http://www.w3.org/2000/svg" xmlns:xlink="http://www.w3.org/1999/xlink" viewBox="0 0 2347.97 3778.24"><defs><style>.cls-1{fill:none;}.cls-2{fill:#ecf2fa;}.cls-3{fill:#101c3a;}.cls-12,.cls-4{fill:#390d9f;}.cls-5{fill:#cfe0fa;}.cls-6{fill:#fff;}.cls-7{fill:#fc721a;}.cls-8{fill:#2b173f;}.cls-9{fill:#425fec;}.cls-10{opacity:0.3;}.cls-11{fill:#091022;}.cls-12{fill-rule:evenodd;}.cls-13{fill:#7109b5;}.cls-14{fill:#cbcbcb;}.cls-15{clip-path:url(#clip-path);}.cls-16{fill:#f8a3a2;}.cls-17{fill:#00b5f6;}.cls-18{fill:#131313;}</style><clipPath id="clip-path" transform="translate(-824.49 -164.91)"><rect class="cls-1" x="842.01" y="941.11" width="1610.17" height="1570.88" transform="translate(3294.18 3453.1) rotate(180)"/></clipPath></defs><path class="cls-2" d="M2132.84,608.45c-343.08,72.49-292,473.22-882.63,698.11-633.07,241-249.64,1150.31,470.64,1202.09,716.9,51.51,1047.51-271.74,1121.11-886.05C2897.3,1160.67,2642.67,500.75,2132.84,608.45Z" transform="translate(-824.49 -164.91)"/><path class="cls-2" d="M1326.47,1224.16c153.87-52.87,387.09-300,302.75-576.71S872.22,1380.25,1326.47,1224.16Z" transform="translate(-824.49 -164.91)"/><path class="cls-3" d="M2664.47,2513.68H1984.1c-20.23,0-34.33-16.41-31.49-36.64l65.31-497.48c2.84-20.24,21.55-36.65,41.79-36.65h680.37c20.23,0,34.33,16.41,31.49,36.65L2706.26,2477C2703.42,2497.27,2684.71,2513.68,2664.47,2513.68Z" transform="translate(-824.49 -164.91)"/><path class="cls-4" d="M2642,2479.12H1961.58c-20.24,0-34.33-16.41-31.49-36.64l65.31-462.92c2.84-20.24,21.56-36.65,41.79-36.65h680.37c20.23,0,34.33,16.41,31.5,36.65l-66.44,468.21C2679.77,2468,2662.19,2479.12,2642,2479.12Z" transform="translate(-824.49 -164.91)"/><path class="cls-5" d="M2618.11,2459.47H1991c-18.66,0-31.65-15.12-29-33.77l60.59-429.37c2.62-18.65,19.87-33.77,38.53-33.77h627.15c18.66,0,31.65,15.12,29,33.77l-60.59,429.37C2654,2444.35,2636.76,2459.47,2618.11,2459.47Z" transform="translate(-824.49 -164.91)"/><path class="cls-3" d="M2338.4,2129.36l-8.2-37.39a17,17,0,0,0-16.9-13.41h-221a20.23,20.23,0,0,0-19.86,18.56l-3.18,45.65-1.81,25.73-21.84,312.35a17.08,17.08,0,0,0,17.26,18.56h514.2a20.22,20.22,0,0,0,19.86-18.56l22.34-319.52a17.08,17.08,0,0,0-17.26-18.56H2355.29A17,17,0,0,1,2338.4,2129.36Z" transform="translate(-824.49 -164.91)"/><rect class="cls-6" x="2099.76" y="1932.27" width="416.95" height="506.76" transform="translate(-826.99 -162.27) rotate(-0.07)"/><rect class="cls-3" x="2161.2" y="2030.71" width="171.22" height="12.96" transform="translate(-826.81 -162.34) rotate(-0.07)"/><rect class="cls-3" x="2161.25" y="2067.62" width="85.61" height="12.96" transform="translate(-826.86 -162.39) rotate(-0.07)"/><rect class="cls-3" x="2271.37" y="2067.49" width="85.61" height="12.97" transform="translate(-827.02 -162.08) rotate(-0.07)"/><rect class="cls-3" x="2382.69" y="2067.37" width="85.61" height="12.96" transform="translate(-826.85 -162.14) rotate(-0.07)"/><rect class="cls-3" x="2349.03" y="2030.52" width="119.23" height="12.96" transform="translate(-826.83 -162.14) rotate(-0.07)"/><rect class="cls-3" x="2297.12" y="2103.06" width="171.22" height="12.96" transform="matrix(1, 0, 0, 1, -826.9, -162.19)"/><rect class="cls-3" x="2161.29" y="2103.25" width="119.23" height="12.96" transform="translate(-826.91 -162.36) rotate(-0.07)"/><rect class="cls-3" x="2161.33" y="2138.57" width="171.22" height="12.96" transform="translate(-827.02 -162.25) rotate(-0.07)"/><rect class="cls-3" x="2161.37" y="2175.48" width="85.61" height="12.96" transform="translate(-826.98 -162.39) rotate(-0.07)"/><rect class="cls-3" x="2271.49" y="2175.35" width="85.61" height="12.96" transform="translate(-826.98 -162.27) rotate(-0.07)"/><polygon class="cls-3" points="1643.94 2023.23 1558.33 2023.34 1558.31 2010.37 1643.92 2010.28 1643.94 2023.23"/><polygon class="cls-3" points="1643.89 1986.37 1524.67 1986.51 1524.65 1973.54 1643.88 1973.41 1643.89 1986.37"/><rect class="cls-3" x="2297.25" y="2210.92" width="171.22" height="12.96" transform="translate(-827.02 -162.19) rotate(-0.07)"/><rect class="cls-3" x="2161.41" y="2211.11" width="119.23" height="12.96" transform="translate(-827.03 -162.36) rotate(-0.07)"/><path class="cls-7" d="M2235.77,2142l-17.4-37.4c-3.7-7.94-11.93-13.4-20.2-13.4h-221c-10.25,0-17.1,8.3-15.29,18.56l8.05,45.64,4.54,25.73,55.07,312.35c1.81,10.25,11.59,18.56,21.84,18.56h514.19c10.25,0,17.1-8.31,15.29-18.56l-56.34-319.52c-1.8-10.25-11.58-18.56-21.83-18.56H2256C2247.71,2155.35,2239.47,2149.88,2235.77,2142Z" transform="translate(-824.49 -164.91)"/><rect class="cls-3" x="897.34" y="2278.93" width="77.09" height="13.06"/><rect class="cls-3" x="988.06" y="2278.93" width="77.09" height="13.06"/><rect class="cls-3" x="1078.78" y="2278.93" width="77.09" height="13.06"/><rect class="cls-3" x="1169.49" y="2278.93" width="255.55" height="13.06"/><rect class="cls-3" x="1441.65" y="2278.93" width="77.09" height="13.06"/><rect class="cls-3" x="1532.36" y="2278.93" width="77.1" height="13.06"/><rect class="cls-3" x="1623.08" y="2278.93" width="77.09" height="13.06"/><rect class="cls-3" x="1713.8" y="2278.93" width="77.1" height="13.06"/><path class="cls-3" d="M2641.26,2513.68H1716.89c-25.17,0-45.57-3.33-45.57-28.49V2456.9h1015.5v28.29C2686.82,2510.35,2666.43,2513.68,2641.26,2513.68Z" transform="translate(-824.49 -164.91)"/><path class="cls-4" d="M2651.54,2485.19H1672.31v-28.93H2680.46A28.92,28.92,0,0,1,2651.54,2485.19Z" transform="translate(-824.49 -164.91)"/><path class="cls-3" d="M2681.15,2459.1l2.4-10.68,13.61,4.59-7.07,41.34-12,15.48-10.63,2.61a18.88,18.88,0,0,1-3.07.34c-1.58,0-33.48,0-33.48,0s21-23.09,22.83-23.09,18.19-1.05,18.19-1.05l5-14.73,3.45-4.44Z" transform="translate(-824.49 -164.91)"/><path class="cls-6" d="M2997.21,983.22v763.17a72.39,72.39,0,0,1-72.41,72.4H1898.61a72.39,72.39,0,0,1-72.41-72.4V983.22A58.86,58.86,0,0,1,1885,924.38H2938.37A58.86,58.86,0,0,1,2997.21,983.22Z" transform="translate(-824.49 -164.91)"/><path class="cls-5" d="M2924.79,1824.53H1898.61a78.22,78.22,0,0,1-78.14-78.14V983.22A64.64,64.64,0,0,1,1885,918.65H2938.37a64.64,64.64,0,0,1,64.57,64.57v763.17A78.23,78.23,0,0,1,2924.79,1824.53ZM1885,930.11a53.17,53.17,0,0,0-53.1,53.11v763.17a66.75,66.75,0,0,0,66.67,66.68H2924.79a66.74,66.74,0,0,0,66.67-66.68V983.22a53.16,53.16,0,0,0-53.09-53.11Z" transform="translate(-824.49 -164.91)"/><path class="cls-8" d="M2868.91,957.08a9.11,9.11,0,1,0,9.1,9.11A9.11,9.11,0,0,0,2868.91,957.08Z" transform="translate(-824.49 -164.91)"/><path class="cls-9" d="M2907.34,957.08a9.11,9.11,0,1,0,9.11,9.11A9.1,9.1,0,0,0,2907.34,957.08Z" transform="translate(-824.49 -164.91)"/><path class="cls-7" d="M2945.77,957.08a9.11,9.11,0,1,0,9.11,9.11A9.1,9.1,0,0,0,2945.77,957.08Z" transform="translate(-824.49 -164.91)"/><rect class="cls-5" x="1284.84" y="855.07" width="884.45" height="11.47"/><g class="cls-10"><path class="cls-11" d="M2506.34,1381.39c-12.82-17-14.59-38.63-34.73-50.21-16.73-9.59-25.21-20-33.91-29.35,18.5-13.64,44.38-39.08,56-62.08,9.66-19,7.45-33.48-1.11-27.06-19.54,14.52-82.06,49.62-101.75,71a1.56,1.56,0,0,0-.37.59c-16.45,12.32-47.34,79.35-49.11,94.31-2.65,22.35,40.85,36.72,27.95,90.62-.59.59-72.49,162.81-97.78,211.55-9.65,16-19.47,32.08-28.76,47.93-12.46-6.78-25.36-13.86-38.19-20.79-4.35-13.05-98.15,67.42-105.07,54.37,0,0-156.69-104.18-273.27-149v133.13a72.39,72.39,0,0,0,72.41,72.4h539.16c10.84-135.15,14.6-311.38,14.6-311.38-7.16-49,21.24-49,38.78-67S2519.17,1398.35,2506.34,1381.39Z" transform="translate(-824.49 -164.91)"/></g><g class="cls-10"><rect class="cls-11" x="1138.43" y="1076.08" width="869.48" height="398.18" rx="56.89"/></g><polygon class="cls-12" points="689.51 307.42 621.83 212.2 738.13 201.2 689.51 307.42"/><path class="cls-3" d="M1507,451.1l-70-98.55,120.36-11.39Zm-65.76-96.59,65.31,91.89,46.92-102.51Z" transform="translate(-824.49 -164.91)"/><path class="cls-9" d="M1099.07,1130.07l.4.32,25.47-32.91-40.41-5.53-.44,2.09A39.44,39.44,0,0,0,1099.07,1130.07Z" transform="translate(-824.49 -164.91)"/><path class="cls-7" d="M1113.1,670a8.9,8.9,0,1,1-7-10.45A8.9,8.9,0,0,1,1113.1,670Z" transform="translate(-824.49 -164.91)"/><path class="cls-7" d="M2817,222.39a8.89,8.89,0,1,1-7-10.46A8.89,8.89,0,0,1,2817,222.39Z" transform="translate(-824.49 -164.91)"/><path class="cls-9" d="M1571.35,779a8.89,8.89,0,1,1-7-10.46A8.89,8.89,0,0,1,1571.35,779Z" transform="translate(-824.49 -164.91)"/><path class="cls-13" d="M1959.27,271.07a17.79,17.79,0,1,1-14-20.91A17.79,17.79,0,0,1,1959.27,271.07Z" transform="translate(-824.49 -164.91)"/><path class="cls-7" d="M3172.12,348.35a17.79,17.79,0,1,1-14-20.92A17.8,17.8,0,0,1,3172.12,348.35Z" transform="translate(-824.49 -164.91)"/><path class="cls-3" d="M2239.79,1187.45H2225v-63.89a68,68,0,0,1,67.93-67.91,53.22,53.22,0,0,0,53.16-53.16V764.65h14.75v237.84A68,68,0,0,1,2293,1070.4a53.22,53.22,0,0,0-53.17,53.16Z" transform="translate(-824.49 -164.91)"/><path class="cls-3" d="M2393.57,1187.45h-14.74v-63.89a68,68,0,0,1,67.91-67.91,53.23,53.23,0,0,0,53.17-53.16V764.65h14.75v237.84a68,68,0,0,1-67.92,67.91,53.23,53.23,0,0,0-53.17,53.16Z" transform="translate(-824.49 -164.91)"/><path class="cls-4" d="M2228.12,1143.9l10.67.18a12,12,0,0,1,11.69,10.07l9,54.51-54.16-.88,10.78-54.19A12,12,0,0,1,2228.12,1143.9Z" transform="translate(-824.49 -164.91)"/><path class="cls-4" d="M2381.91,1143.9l10.67.18a12,12,0,0,1,11.69,10.07l9,54.51-54.15-.88,10.77-54.19A12,12,0,0,1,2381.91,1143.9Z" transform="translate(-824.49 -164.91)"/><path class="cls-4" d="M2511.73,881.2l-10.68-.18A12,12,0,0,1,2489.37,871l-9-54.51,54.16.88-10.78,54.19A12,12,0,0,1,2511.73,881.2Z" transform="translate(-824.49 -164.91)"/><path class="cls-4" d="M2357.93,881.2l-10.67-.18A12,12,0,0,1,2335.57,871l-9-54.51,54.16.88-10.79,54.19A12,12,0,0,1,2357.93,881.2Z" transform="translate(-824.49 -164.91)"/><rect class="cls-3" x="1076.19" y="1008.43" width="869.48" height="398.18" rx="56.89"/><path class="cls-4" d="M2737.88,1230.23v284.4a56.84,56.84,0,0,1-56.86,56.85H1925.3a56.83,56.83,0,0,1-56.85-56.85v-284.4a56.89,56.89,0,0,1,56.85-56.92H2681A56.9,56.9,0,0,1,2737.88,1230.23Z" transform="translate(-824.49 -164.91)"/><path class="cls-6" d="M2571.63,1511.78H2034.69a50.86,50.86,0,0,1,0-101.72h536.94a50.86,50.86,0,0,1,0,101.72Zm-536.94-90.19a39.33,39.33,0,0,0,0,78.66h536.94a39.33,39.33,0,0,0,0-78.66Z" transform="translate(-824.49 -164.91)"/><path class="cls-6" d="M2571.63,1334.8H2034.69a50.87,50.87,0,0,1,0-101.73h536.94a50.87,50.87,0,0,1,0,101.73Zm-536.94-90.2a39.34,39.34,0,0,0,0,78.67h536.94a39.34,39.34,0,0,0,0-78.67Z" transform="translate(-824.49 -164.91)"/><path class="cls-6" d="M2102.29,1479.42l-8.5-6.59q4-4.56,8.44-8.72l2.2-2.14q-1.41-.23-8-1.86-4.78-1.18-6.3-1.74l3.32-9.91a86.91,86.91,0,0,1,13.17,6.58,107.15,107.15,0,0,1-1.35-15h10a133.11,133.11,0,0,1-1.52,15.09c.75-.3,2.37-1,4.84-2.2q5.05-2.3,9.34-3.94l3,10.19q-6.26,1.41-14.46,2.76l6.75,7.6c1.35,1.54,2.41,2.79,3.2,3.77l-8.61,5.68-7.59-12.55Q2106.73,1472.56,2102.29,1479.42Z" transform="translate(-824.49 -164.91)"/><path class="cls-6" d="M2179.18,1479.42l-8.5-6.59q4.07-4.56,8.45-8.72l2.2-2.14c-.95-.15-3.63-.77-8.06-1.86q-4.79-1.18-6.3-1.74l3.32-9.91a86.44,86.44,0,0,1,13.17,6.58,108.45,108.45,0,0,1-1.34-15h10a133.88,133.88,0,0,1-1.53,15.09c.76-.3,2.37-1,4.85-2.2q5.05-2.3,9.34-3.94l3,10.19c-4.18.94-9,1.86-14.47,2.76l6.75,7.6c1.36,1.54,2.42,2.79,3.2,3.77l-8.6,5.68-7.61-12.55Q2183.63,1472.56,2179.18,1479.42Z" transform="translate(-824.49 -164.91)"/><path class="cls-6" d="M2256.08,1479.42l-8.5-6.59q4.07-4.56,8.45-8.72l2.2-2.14c-.94-.15-3.63-.77-8.05-1.86-3.19-.79-5.3-1.37-6.31-1.74l3.32-9.91a86.44,86.44,0,0,1,13.17,6.58,108.45,108.45,0,0,1-1.34-15h10a133.88,133.88,0,0,1-1.53,15.09q1.13-.45,4.85-2.2,5.05-2.3,9.34-3.94l3,10.19q-6.25,1.41-14.47,2.76l6.76,7.6c1.35,1.54,2.42,2.79,3.21,3.77l-8.62,5.68-7.6-12.55Q2260.53,1472.56,2256.08,1479.42Z" transform="translate(-824.49 -164.91)"/><path class="cls-6" d="M2333,1479.42l-8.5-6.59q4-4.56,8.44-8.72l2.2-2.14q-1.41-.23-8-1.86c-3.19-.79-5.3-1.37-6.31-1.74l3.32-9.91a86.57,86.57,0,0,1,13.18,6.58,105.63,105.63,0,0,1-1.35-15h10a133.11,133.11,0,0,1-1.52,15.09q1.13-.45,4.84-2.2,5.05-2.3,9.34-3.94l3,10.19q-6.26,1.41-14.47,2.76l6.75,7.6c1.35,1.54,2.42,2.79,3.21,3.77l-8.61,5.68-7.6-12.55Q2337.43,1472.56,2333,1479.42Z" transform="translate(-824.49 -164.91)"/><path class="cls-6" d="M2409.88,1479.42l-8.51-6.59q4.07-4.56,8.45-8.72l2.2-2.14c-.95-.15-3.62-.77-8.05-1.86-3.19-.79-5.3-1.37-6.31-1.74l3.32-9.91a86,86,0,0,1,13.17,6.58,106.9,106.9,0,0,1-1.34-15h10a133.11,133.11,0,0,1-1.52,15.09q1.13-.45,4.84-2.2,5.05-2.3,9.34-3.94l3,10.19q-6.26,1.41-14.47,2.76l6.75,7.6c1.36,1.54,2.42,2.79,3.21,3.77l-8.61,5.68-7.6-12.55Q2414.32,1472.56,2409.88,1479.42Z" transform="translate(-824.49 -164.91)"/><path class="cls-6" d="M2486.77,1479.42l-8.5-6.59q4.07-4.56,8.44-8.72l2.2-2.14q-1.41-.23-8-1.86-4.79-1.18-6.3-1.74l3.32-9.91a86.91,86.91,0,0,1,13.17,6.58,107.15,107.15,0,0,1-1.35-15h10a133.11,133.11,0,0,1-1.52,15.09c.75-.3,2.37-1,4.84-2.2q5.05-2.3,9.34-3.94l3,10.19q-6.26,1.41-14.46,2.76l6.75,7.6c1.35,1.54,2.41,2.79,3.2,3.77l-8.61,5.68-7.59-12.55Q2491.21,1472.56,2486.77,1479.42Z" transform="translate(-824.49 -164.91)"/><rect class="cls-6" x="1247.91" y="1105.84" width="458.91" height="25.94"/><g class="cls-10"><path class="cls-11" d="M2451,1381.39c-12.83-17-14.6-38.63-34.72-50.21-16.74-9.59-25.23-20-33.92-29.35,18.5-13.64,44.38-39.08,56-62.08,9.66-19,7.45-33.48-1.11-27.06-19.54,14.52-82.07,49.62-101.75,71a1.56,1.56,0,0,0-.37.59c-16.45,12.32-47.34,79.35-49.11,94.31-2.65,22.35,40.85,36.72,27.94,90.62-.29.3-22.34,49.77-46.23,102.27H2395.3c1.25-38.78,1.76-64.07,1.76-64.07-7.14-49,21.24-49,38.79-67S2463.87,1398.35,2451,1381.39Z" transform="translate(-824.49 -164.91)"/></g><path class="cls-4" d="M2985.2,506.4a171.7,171.7,0,0,0-47.25,5,187,187,0,0,0,2.85-25.36c3.64-102.53-76.52-188.61-179.05-192.25a184.77,184.77,0,0,0-125,42.74C2598.29,239.33,2505.2,169,2394,165.08c-149.79-5.33-275.53,111.78-280.86,261.56q-.49,14,.41,27.7a191.83,191.83,0,0,0-86.9-24.33c-106.57-3.79-196,79.52-199.82,186.09s79.53,196,186.09,199.81l976.95,34.75,0-.86a171.93,171.93,0,0,0-4.75-343.4Z" transform="translate(-824.49 -164.91)"/><path class="cls-5" d="M3088.1,674.15a171.94,171.94,0,0,1-155,171.08v.86H1955.53c-106.62,0-193.07-86.44-193.07-193.08s86.45-193.07,193.07-193.07c1.15,0,2.28,0,3.42.05h0a191.81,191.81,0,0,1,84.28,21.18,274.7,274.7,0,0,1-1.41-27.67c0-7.61.33-15.16,1-22.61,11.47-139.31,128.17-248.77,270.44-248.77q8.61,0,17.05.56h0c103.87,6.43,191.87,71.34,231.63,162.15a185.13,185.13,0,0,1,99.35-45.57,186.39,186.39,0,0,1,74.13,5.29h0a185.8,185.8,0,0,1,135.61,178.9,189,189,0,0,1-1.93,25.45,171.54,171.54,0,0,1,219,165.25Z" transform="translate(-824.49 -164.91)"/><path class="cls-4" d="M2289.64,699.39A164.56,164.56,0,0,0,2326,743.46l-16.14,37.93L2367.29,812l22.42-34.6a164.25,164.25,0,0,0,56.86,5.49L2462,821.08l62.29-19-8.59-40.32a165.28,165.28,0,0,0,44.07-36.36l37.93,16.15,30.54-57.45-34.59-22.42a165.17,165.17,0,0,0,5.5-56.86l38.23-15.42-19-62.29L2578,535.69a164.09,164.09,0,0,0-36.35-44.08l16.15-37.93-57.46-30.55-22.4,34.59a165,165,0,0,0-56.87-5.49L2405.65,414l-62.28,19,8.59,40.32a164.38,164.38,0,0,0-44.07,36.35L2270,493.55,2239.41,551l34.61,22.4a163.88,163.88,0,0,0-5.51,56.87l-38.24,15.41,19,62.29Zm31.77-47.5A117.54,117.54,0,1,1,2468.18,730,117.53,117.53,0,0,1,2321.41,651.89Z" transform="translate(-824.49 -164.91)"/><polygon class="cls-14" points="1787.41 436.28 1814.63 425.3 1800.27 378.33 1797.52 379.17 1811.1 423.62 1786.34 433.61 1787.41 436.28"/><path class="cls-14" d="M2522.86,802.35l2.82-.6-8.36-39.24c19.4-9.86,34.31-26.26,34.46-26.43l-2.14-1.93c-.15.17-15.22,16.74-34.6,26.29l-1,.49Z" transform="translate(-824.49 -164.91)"/><path class="cls-14" d="M2367.6,716.38l1.65-2.35c-75.66-53.13-45.32-134.07-45-134.88l-2.69-1C2321.24,578.94,2290.1,662,2367.6,716.38Z" transform="translate(-824.49 -164.91)"/><path class="cls-14" d="M2269.52,604.93a262.66,262.66,0,0,1,5.88-31.14l.28-1L2263,564.55,2261.4,567l11,7.1a271.1,271.1,0,0,0-5.69,30.5Z" transform="translate(-824.49 -164.91)"/><path class="cls-3" d="M2428.67,779.77c-28.36,3.43-50.31-3.51-55.39-5.32l-22.53,34.76L2291,777.41l16.25-38.16a147.78,147.78,0,0,1-35.4-42.91L2231.24,705l-19.8-64.82,38.47-15.51a144.92,144.92,0,0,1,5.34-55.38l-34.8-22.53,31.8-59.8,38.13,16.24c14.85-19.16,38-32.61,42.94-35.37l-8.66-40.58,64.83-19.81L2405,445.9c29.76-2.81,50.47,3.57,55.4,5.3l22.52-34.76,59.79,31.8-16.22,38.09c17.17,12.37,32.32,37.75,35.34,43l40.6-8.67,19.8,64.83L2583.74,601a165.42,165.42,0,0,1-5.34,55.34l34.81,22.57-31.79,59.78-38.15-16.24c-15.43,19.38-38,32.64-42.92,35.38l8.65,40.58-64.83,19.81Zm68.45-23.44,1-.5c.26-.14,26.73-14.28,43.63-36l.68-.87,37.75,16.08,29.34-55.17L2575,657.56l.33-1a160.55,160.55,0,0,0,5.44-56.33l-.09-1.05,38-15.33L2600.45,524l-40.09,8.56-.52-.92c-.17-.31-17.29-30.78-35.93-43.63l-1-.66,16.11-37.81-55.18-29.34-22.35,34.49-1.08-.43c-.23-.08-22.79-8.79-56.23-5.4l-1.07.1-15.33-38L2328,429.21l8.56,40.12-1,.5c-.27.14-27.44,14.53-43.62,36l-.67.89-37.77-16.09-29.35,55.18,34.48,22.33-.38,1.06c-.09.24-8.81,24.88-5.43,56.26l.12,1.07-38.05,15.34,18.28,59.82,40.16-8.56.49,1a143.44,143.44,0,0,0,36,43.6l.85.68-16.07,37.74,55.18,29.34L2372.15,771l1.09.45c.24.09,24.07,9.57,56.16,5.4l1.1-.14,15.34,38.07,59.83-18.29Z" transform="translate(-824.49 -164.91)"/><path class="cls-3" d="M2297.77,612.82a119.06,119.06,0,1,1,119.06,119.07A119.19,119.19,0,0,1,2297.77,612.82Zm2.85,0a116.21,116.21,0,1,0,116.21-116.21A116.34,116.34,0,0,0,2300.62,612.82Z" transform="translate(-824.49 -164.91)"/><g class="cls-15"><path class="cls-3" d="M1217.26,2076.34c1,16.65-86.74,35.48-196,42.06s-148.55-8.11-149.55-24.75,36.68-29,145.92-35.54S1216.25,2059.69,1217.26,2076.34Z" transform="translate(-824.49 -164.91)"/><path class="cls-16" d="M1148.71,2593.94c32.58,7.06,85,9.48,85,9.48s-81.41-437.54-96.92-561.59c-5-39.64-189.34-119.76-203.64,48.81-11.29,133,195.1,350.3,198.88,460.34C1132.72,2572,1142.51,2592.59,1148.71,2593.94Z" transform="translate(-824.49 -164.91)"/><path class="cls-16" d="M1135.06,2580.82s-20.13,149.6,28.74,125.37c52.53-26.05,154.34-2.67,154.34-2.67s-3.65-92.17-44.11-106.9c-95.89-34.91-95.8-102.94-95.8-102.94Z" transform="translate(-824.49 -164.91)"/><path class="cls-9" d="M1358.74,1519.19c-46-34-156.51-42.93-239.43,46.73S934.05,1814.75,871.84,2092c0,0,174.09-73.87,345.32-14.59,0,0,147-202,181.38-312.23S1409.42,1556.71,1358.74,1519.19Z" transform="translate(-824.49 -164.91)"/><polygon class="cls-16" points="112.42 3518.06 241.96 3575.15 348.75 3421.45 186.52 3349.94 112.42 3518.06"/><path class="cls-17" d="M1108.71,3692.38s-29-25.6-75.19-3.85-51.35-12.26-59.26-20.63-19.55-16.55-37.81-16.66c0,0-44.55,160.11-34.51,285.35l433.27,6.55s14.06-43.34-23-64-200.53-70.6-221.67-113.37S1108.71,3692.38,1108.71,3692.38Z" transform="translate(-824.49 -164.91)"/><path class="cls-3" d="M985.79,3907.15l-7.09-.11c1.21-79.61-67.9-106.1-70.84-107.19l2.45-6.65C911.08,3793.48,987.08,3822.42,985.79,3907.15Z" transform="translate(-824.49 -164.91)"/><path class="cls-3" d="M899.83,3896.91c-.69,15.59,1.81,29.31,2.11,39.68l433.27,6.55s6.55-20.24-1.14-39.66Z" transform="translate(-824.49 -164.91)"/><path class="cls-3" d="M1128.57,3843.13l-.8-.16c-4-.81-98.13-20.26-107.41-62.37-9.17-41.63,25.34-81.29,26.81-83l5.32,4.7c-.34.38-33.59,38.66-25.2,76.73,7.88,35.8,92,54.84,101.1,56.78l50.22-13,1.77,6.87Z" transform="translate(-824.49 -164.91)"/><rect class="cls-3" x="1081.48" y="3802.23" width="47.81" height="7.1" transform="translate(-1948.05 364.04) rotate(-18.03)"/><rect class="cls-3" x="1044.62" y="3774.45" width="47.81" height="7.09" transform="matrix(0.95, -0.31, 0.31, 0.95, -1940.83, 350.98)"/><path class="cls-7" d="M1136.59,3058.33c-65.12,68.3-93.33,75.37-185.33,275.87C925.19,3391,824.49,3863,824.49,3863c31.39,48.29,291.57-34.41,436.45-5.43,0,0,195.13-482.15,195.13-818.57C1456.07,2947.3,1250.26,2939.08,1136.59,3058.33Z" transform="translate(-824.49 -164.91)"/><path class="cls-7" d="M1042.49,2501.68c-18.45,77.56-27.3,592.22,12.91,674.28,28.66,58.49,351.31,203.44,381.21,40.52,26.25-143.06,104.23-621.14,97.47-706.28C1527.54,2428,1097.9,2268.68,1042.49,2501.68Z" transform="translate(-824.49 -164.91)"/><path class="cls-3" d="M1024.12,3194.48l-5.67-4.27c60-79.62,167.11-43.84,168.19-43.48l-2.31,6.7C1183.3,3153.08,1081,3119,1024.12,3194.48Z" transform="translate(-824.49 -164.91)"/><path class="cls-3" d="M1546.76,2340.69c-3.65-54.68-193.68-145.69-337.9-132.47L1167.24,2715c12.45,14.59,52.68,75.16,60.21,91.68,57.21,125.54,109.23,212.93,238.39,247.61C1501.85,2805.49,1551.12,2405.78,1546.76,2340.69Z" transform="translate(-824.49 -164.91)"/><polygon class="cls-16" points="814.04 3517.14 944.24 3572.71 1049.22 3417.78 886.17 3348.17 814.04 3517.14"/><path class="cls-17" d="M1810.43,3689.45s-29.29-25.25-75.23-3-51.49-11.66-59.5-19.92-19.74-16.33-38-16.23c0,0-42.67,160.62-31.17,285.74l433.32,1.48s13.55-43.51-23.8-63.74-201.35-68.25-223-110.76S1810.43,3689.45,1810.43,3689.45Z" transform="translate(-824.49 -164.91)"/><path class="cls-3" d="M1690,3905.65l-7.09,0c.27-79.62-69.14-105.29-72.09-106.35l2.37-6.69C1614,3792.86,1690.33,3820.91,1690,3905.65Z" transform="translate(-824.49 -164.91)"/><path class="cls-3" d="M1604,3896.42c-.5,15.58,2.16,29.28,2.58,39.65l433.32,1.48s6.31-20.32-1.61-39.65Z" transform="translate(-824.49 -164.91)"/><path class="cls-3" d="M1832.05,3840l-.8-.15c-4-.77-98.37-19.12-108.13-61.12-9.65-41.52,24.38-81.58,25.84-83.26l5.37,4.63c-.34.39-33.14,39-24.3,77,8.3,35.7,92.67,53.75,101.75,55.59l50.06-13.57,1.86,6.85Z" transform="translate(-824.49 -164.91)"/><rect class="cls-3" x="1784.53" y="3799.33" width="47.81" height="7.1" transform="translate(-1948.74 616.1) rotate(-18.71)"/><rect class="cls-3" x="1747.35" y="3771.99" width="47.81" height="7.09" transform="translate(-1940.6 601.45) rotate(-18.68)"/><path class="cls-7" d="M1553.33,3135.17c-31.73,88.89-186.15,501.36-60,784.85,48.31,31.37,275.57-50.88,419.84-74.1,0,0,61.15-530.42-64.94-921.34C1820.05,2837.31,1608.71,2980,1553.33,3135.17Z" transform="translate(-824.49 -164.91)"/><path class="cls-7" d="M1189.86,2436.46c11.76,78.86,262.83,728.34,330.71,789.53,48.37,43.61,227.07,54,318-84.46s-151.32-803.72-189.31-880.22C1612.59,2187.46,1154.52,2199.58,1189.86,2436.46Z" transform="translate(-824.49 -164.91)"/><path class="cls-9" d="M1628.63,1493.57c113,68.89,156.88,238.87,165,530.93s60.26,482.26,28.19,558c0,0-337.24,307.1-828.33,111.18,0,0,15-83.54,48.39-445.58s32.56-460.24,80.73-601.5,276.86-270.11,338.61-236.12C1523.18,1444.59,1541.38,1440.4,1628.63,1493.57Z" transform="translate(-824.49 -164.91)"/><path class="cls-16" d="M1933,1640.8s75.52,44,136.86,82.27c12.71-15.92,25.88-32,39-47.94,35.66-48.75,142-211,142.69-211.61,24.38-53.88-16-68.25-8.67-90.58,4.93-15,50.12-82,69.13-94.31a4.13,4.13,0,0,1,.55-.62c24.22-21.36,94.2-56.42,116.8-71,9.95-6.42,9.08,8-4.59,27.11-16.51,23-47.78,48.45-69.2,62.06,6.74,9.36,13,19.73,27.68,29.34,17.69,11.6,14.82,33.28,24.07,50.23s-6.4,41.06-27.74,59-49.77,18.06-53,67c0,0-83.76,358.09-127.16,444.94-27.86,55.74-63.67,74.6-98,71.19-87,.47-242.91-50.88-353-134.1C1631.79,1795.63,1773.46,1560.85,1933,1640.8Z" transform="translate(-824.49 -164.91)"/><path class="cls-9" d="M1477.38,1536.48c-30.5,36.42-52.87,90.39,12.27,185.79S1735.12,1945,1891,2014.85c0,0,192.3-177.15,136.69-351.87,0,0-266.73-130-356.46-164S1511,1496.3,1477.38,1536.48Z" transform="translate(-824.49 -164.91)"/><path class="cls-6" d="M1818.48,1845.45c-1,.56-95.53,55.45-186-24.48l4.7-5.31c86.47,76.42,176.73,24.23,177.64,23.7Z" transform="translate(-824.49 -164.91)"/><path class="cls-6" d="M1969.16,1931.76c-35.14,52.37-72.71,86.64-73.23,87.11l-1.36,1.23-1.78-.39c-2.24-.5-225.67-51.1-351.12-191.08l5.28-4.74c118,131.67,324.15,183.39,345.57,188.47,10-9.4,73.06-70.73,107.5-151.33l6.52,2.78A417.79,417.79,0,0,1,1969.16,1931.76Z" transform="translate(-824.49 -164.91)"/><path class="cls-3" d="M1567.38,3138.38c-42.12-47.64-113.52-28.4-114.23-28.21l-3,.83-122.41-277,6.48-2.86,120,271.51c14.56-3.22,78.5-14.15,118.45,31.06Z" transform="translate(-824.49 -164.91)"/><path class="cls-6" d="M1310.75,2425c-86,0-139.33-47.1-140.13-47.83l4.77-5.24c1.18,1.06,119.67,105.43,289.07-4l3.85,6C1408.83,2412.36,1355.38,2425,1310.75,2425Z" transform="translate(-824.49 -164.91)"/><path class="cls-3" d="M1453.16,3796.37c-.41-1.32-40.79-135.8,27-425.2l6.91,1.62c-67.24,287.19-27.51,420.15-27.1,421.47Z" transform="translate(-824.49 -164.91)"/><path class="cls-3" d="M1513.79,1405.46s-24.83-26.59-53.56-78.93l49,12Z" transform="translate(-824.49 -164.91)"/><path class="cls-16" d="M1597,1200.2c-7-55.76-4.48-141.09-70.16-129.35-16.79,3-94.68,11.21-112,19.68-41,20.21-26.33,83.2-37.17,140.36-3.18,17-1.71,49.87,4.7,64.82l-16.71-1.62-4.11,136.5s89,60,154.49,8.58l-5-73.13c15.24,3.75,27.83,5.33,34.76,3.88C1593.65,1359.93,1604.83,1262.76,1597,1200.2Z" transform="translate(-824.49 -164.91)"/><path class="cls-3" d="M1569.77,1100.77c-6,2.91-24.46,10.51-24.46,10.51s-3.81,47.23-10.44,65,17.77,79,50.54,84.16,13.06,40.63,10.56,55.78c-3.57,21.66,17.07,44-23.35,59.51-26.94,10.33-95.56-3.29-78.82-46.72s46-97.86,14.4-144.29,6.62,57.63-51.31,96.77c-16,10.84-28.8,19.83-38.86,27.15-16,11.67-37.09,10.8-53.75.09a25.93,25.93,0,0,0-6-2.87c-16.92-5.56-66.27-62.28-69.83-137s29.75-100.88,95.71-115.73,41.65-42.16,82.78-50.94,92.33-59.76,92.33-59.76S1624.66,1074.12,1569.77,1100.77Z" transform="translate(-824.49 -164.91)"/><path class="cls-16" d="M1439.94,1227.78c12.09,23.71,38.36,34.54,58.68,24.19s27-38,14.9-61.69-38.35-34.54-58.67-24.19S1427.86,1204.07,1439.94,1227.78Z" transform="translate(-824.49 -164.91)"/><path class="cls-3" d="M1501,1234.26a12.14,12.14,0,0,1-3.4,2.82,10,10,0,0,1-8.82.29c-6.62-2.72-7-7.87-7.31-12s-.59-7.8-5.52-11.91c-3.93-3.27-8.16-4.47-11.9-5.53-6.43-1.82-13.72-3.89-12.27-16.58a14.62,14.62,0,0,1,5.71-10.17c9.48-7.43,27.64-5.22,28.41-5.13l-.89,7c-4.43-.56-17.23-1-23.15,3.66a7.78,7.78,0,0,0-3,5.4c-.77,6.7.91,7.18,7.16,8.95,4.19,1.18,9.41,2.66,14.5,6.9,7.24,6,7.71,12.27,8,16.83.29,3.9.47,5,2.94,6a2.88,2.88,0,0,0,2.73,0c2.72-1.46,4.58-7.19,5.07-9.74l7,1.31C1506,1223.33,1504.7,1229.88,1501,1234.26Z" transform="translate(-824.49 -164.91)"/><path class="cls-6" d="M1067.71,1988.19l-5.94-.11c3.8-188.65,60.61-349.27,61.19-350.87l5.59,2C1128,1640.81,1071.49,1800.55,1067.71,1988.19Z" transform="translate(-824.49 -164.91)"/></g><rect class="cls-18" x="99.21" y="2347.09" width="2162.96" height="14.67"/></svg>